<svg version="1.1" id="qdu_design_svg" x="0" y="0" width="219.672" height="104.917" viewBox="0 0 219.672 104.917" xmlns="http://www.w3.org/2000/svg"><g id="qdu_university_svg"><title>qdu_design_svg</title><path fill="#0095D5" d="M25.239 50.012c-.693-.692-1.678-1.029-2.646-1.029h-3.321v11.452h3.321c.969 0 1.953-.336 2.646-1.029 1.18-1.199 1.282-3.113 1.282-4.706 0-1.596-.102-3.472-1.282-4.688m1.264 10.655c-1.054 1.006-2.461 1.492-3.91 1.492H17.4V47.26h5.192c1.449 0 2.856.502 3.91 1.513 1.637 1.554 1.912 3.782 1.912 5.927.001 2.142-.295 4.41-1.911 5.967m5.853 1.493V47.259h9.959v1.724h-8.089v4.539h7.103v1.766h-7.103v5.147h8.089v1.725zm22.735-1.221c-1.029 1.01-2.627 1.49-4.225 1.49-1.806 0-3.255-.502-4.264-1.425-.951-.886-1.6-2.166-1.6-3.573h1.957c0 .881.441 1.764 1.05 2.353.673.651 1.806.923 2.856.923 1.135 0 2.102-.229 2.775-.857.461-.422.754-.946.754-1.748 0-1.154-.732-2.122-2.498-2.395-.819-.125-1.557-.23-2.355-.354-2.225-.339-3.969-1.576-3.969-3.953 0-1.116.502-2.188 1.302-2.944 1.03-.965 2.354-1.467 3.908-1.467 1.45 0 2.88.48 3.866 1.426a4.494 4.494 0 0 1 1.43 3.196h-1.955c-.043-.735-.314-1.387-.734-1.87-.568-.651-1.473-1.032-2.627-1.032-1.072 0-1.996.296-2.648 1.032-.379.438-.611.943-.611 1.617 0 1.345 1.117 1.952 2.23 2.101.84.105 1.658.252 2.479.377 2.479.358 4.14 1.871 4.14 4.223.001 1.243-.525 2.167-1.261 2.88m5.086-13.68h1.911V62.16h-1.911zM76.334 62.16l-.316-1.786c-.736 1.217-2.373 2.08-4.056 2.08-1.492 0-2.938-.487-4.012-1.536-1.514-1.472-1.936-3.53-1.936-6.2 0-2.373.314-4.559 1.936-6.137 1.073-1.05 2.52-1.594 4.012-1.594 1.683 0 3.237.587 4.266 1.68.717.757 1.219 1.703 1.285 2.9h-1.957a2.82 2.82 0 0 0-.673-1.638c-.673-.801-1.702-1.178-2.921-1.178a3.786 3.786 0 0 0-2.71 1.134c-1.218 1.26-1.302 3.279-1.302 4.833 0 1.491.104 3.637 1.346 4.899.713.734 1.658 1.068 2.666 1.068 1.053 0 2.04-.354 2.713-1.025.986-.971 1.28-2.421 1.28-3.783h-3.993v-1.745h5.674v8.028h-1.302zm14.784 0l-7.314-11.981V62.16h-1.807V47.259h2.101l7.316 12.02v-12.02h1.806V62.16z" id="qdu_barra_2"/></g><g id="qdu_university_svg"><title>qdu_university_svg</title><path fill="#0095D5" d="M22.427 92.232c-3.344 0-5.445-2.016-5.445-5.734V77.06h1.87v9.479c0 2.375.988 3.949 3.575 3.949 2.583 0 3.568-1.574 3.568-3.949V77.06h1.873v9.438c0 3.718-2.103 5.734-5.441 5.734m19.013-.272l-7.313-11.978V91.96h-1.808v-14.9h2.104l7.312 12.02V77.06h1.809v14.9zm6.795-14.9h1.914v14.9h-1.914zm12.049 14.9h-1.957l-5.021-14.9h1.933l4.116 12.586 4.039-12.586h1.909zm8.209 0v-14.9h9.961v1.725h-8.093v4.537h7.105v1.765h-7.105v5.147h8.093v1.726zM87.97 78.785h-3.971v5.23h3.971c1.766 0 3.025-.715 3.025-2.607 0-1.887-1.26-2.623-3.025-2.623m2.963 13.175l-2.815-6.199H84v6.199h-1.871v-14.9h5.842c1.746 0 2.963.486 3.783 1.324.713.754 1.178 1.725 1.178 3.023 0 1.307-.423 2.188-1.135 2.945-.44.461-1.074.816-1.787 1.049l2.985 6.559h-2.062zm14.871-1.218c-1.029 1.008-2.627 1.49-4.223 1.49-1.809 0-3.257-.504-4.269-1.43-.946-.883-1.597-2.162-1.597-3.572h1.957c0 .887.441 1.768 1.048 2.354.675.65 1.806.926 2.86.926 1.135 0 2.102-.23 2.771-.861.463-.422.756-.945.756-1.744 0-1.158-.732-2.123-2.5-2.396-.816-.127-1.553-.232-2.352-.355-2.229-.338-3.975-1.576-3.975-3.951 0-1.115.508-2.188 1.307-2.943 1.027-.967 2.354-1.471 3.906-1.471 1.449 0 2.881.482 3.869 1.43.902.861 1.385 1.932 1.428 3.191h-1.955a3.118 3.118 0 0 0-.734-1.869c-.57-.65-1.471-1.027-2.627-1.027-1.072 0-1.996.291-2.648 1.027-.38.443-.612.947-.612 1.621 0 1.344 1.116 1.951 2.229 2.1.842.105 1.662.252 2.482.377 2.479.355 4.141 1.871 4.141 4.227.001 1.235-.524 2.159-1.262 2.876m5.09-13.682h1.91v14.9h-1.91zm11.484 1.746V91.96h-1.893V78.806h-4.433V77.06h10.76v1.746zm13.564 7.1v6.054h-1.888v-6.054l-5.008-8.846h2.103l3.909 7.08 3.888-7.08h1.998z" id="qdu_barra_2"/></g><path fill="#0095D5" id="qdu_barra_1" d="M16.833 38.882h124.496v1.873H16.833z"/><path fill="#0095D5" id="qdu_barra_2" d="M16.833 68.685h124.496v1.873H16.833z"/><g id="qdu_university_svg"><title>qdu_quasar_svg</title><path fill="#0095D5" d="M25.048 29.751c-.711.735-1.697 1.115-2.708 1.115-1.009 0-1.995-.38-2.71-1.115-1.219-1.261-1.281-3.28-1.281-4.833 0-1.553.062-3.573 1.281-4.832.715-.736 1.701-1.112 2.71-1.112 1.011 0 1.997.376 2.708 1.112 1.223 1.259 1.283 3.278 1.283 4.832 0 1.554-.06 3.572-1.283 4.833M22.34 17.188c-1.492 0-2.942.544-4.013 1.598-1.618 1.575-1.913 3.756-1.913 6.132 0 2.377.295 4.562 1.913 6.137.844.827 1.929 1.331 3.079 1.511v4.192h1.868v-4.192c1.15-.18 2.236-.684 3.077-1.511 1.62-1.575 1.917-3.759 1.917-6.137 0-2.376-.297-4.558-1.917-6.132-1.069-1.054-2.519-1.598-4.011-1.598m18.6 9.749c0 2.372-.985 3.952-3.57 3.952-2.586 0-3.574-1.58-3.574-3.952v-9.479h-1.867v9.434c0 3.721 2.1 5.741 5.441 5.741 3.341 0 5.441-2.02 5.441-5.741v-9.434H40.94v9.479zm7.925.127l2.626-7.734 2.646 7.734h-5.272zm1.575-9.605l-5.252 14.899h1.891l1.199-3.53h6.472l1.218 3.53H57.9l-5.273-14.899H50.44zm16.702 6.579c-.82-.128-1.641-.275-2.48-.379-1.113-.146-2.229-.757-2.229-2.104 0-.671.234-1.177.609-1.616.652-.738 1.576-1.031 2.649-1.031 1.155 0 2.058.38 2.628 1.031.42.483.691 1.136.736 1.87h1.953c-.043-1.261-.527-2.333-1.43-3.195-.988-.945-2.416-1.427-3.868-1.427-1.555 0-2.878.504-3.906 1.47-.8.754-1.304 1.826-1.304 2.942 0 2.372 1.746 3.617 3.972 3.95.798.126 1.534.231 2.354.357 1.764.271 2.497 1.238 2.497 2.394 0 .8-.293 1.322-.756 1.749-.669.624-1.639.856-2.772.856-1.051 0-2.186-.271-2.856-.922-.612-.588-1.052-1.474-1.052-2.356h-1.955c0 1.409.65 2.691 1.598 3.571 1.01.928 2.459 1.432 4.266 1.432 1.6 0 3.193-.486 4.224-1.492.736-.714 1.261-1.637 1.261-2.881-.001-2.35-1.66-3.863-4.139-4.219m9.998 3.026l2.625-7.734 2.649 7.734H77.14zm1.576-9.605l-5.253 14.899h1.892l1.196-3.53h6.472l1.221 3.53h1.932l-5.272-14.899h-2.188zm16.532 6.954h-3.974v-5.229h3.974c1.765 0 3.026.734 3.026 2.626 0 1.891-1.261 2.603-3.026 2.603m2.036 1.39c.717-.231 1.348-.586 1.791-1.051.713-.756 1.135-1.64 1.135-2.941 0-1.305-.465-2.272-1.182-3.025-.818-.845-2.037-1.326-3.78-1.326h-5.842v14.898h1.868v-6.2h4.119l2.816 6.2h2.061l-2.986-6.555z" id="qdu_barra_2"/></g><path fill="#0095D5" id="qdu_barra_q" d="M167.638 86.039h37.459v5.914h-37.459z"/><path fill="#0095D5" d="M186.364 17.472c-4.715 0-9.295 1.726-12.684 5.048-5.111 4.982-6.043 11.883-6.043 19.392 0 7.5.932 14.41 6.043 19.391 2.676 2.617 6.09 4.203 9.734 4.774v13.245h5.908V66.077c3.637-.571 7.055-2.157 9.727-4.774 5.115-4.98 6.043-11.891 6.043-19.391 0-7.509-.928-14.41-6.043-19.392-3.384-3.323-7.97-5.048-12.685-5.048zm8.569 39.709c-2.26 2.328-5.377 3.525-8.568 3.525-3.186 0-6.307-1.197-8.566-3.525-3.85-3.981-4.051-10.359-4.051-15.27 0-4.917.201-11.289 4.051-15.275 2.26-2.325 5.381-3.521 8.566-3.521 3.191 0 6.309 1.195 8.568 3.521 3.852 3.986 4.053 10.357 4.053 15.275-.001 4.911-.202 11.289-4.053 15.27z" id="qdu_q"/></svg>